<?xml version="1.0" encoding="UTF-8"?>
<svg version="1.1" xmlns="http://www.w3.org/2000/svg" width="181" height="50">
<path d="M0 0 C0.91112045 -0.00953201 1.82224091 -0.01906403 2.76097107 -0.02888489 C4.24066124 -0.02751778 4.24066124 -0.02751778 5.75024414 -0.02612305 C6.76131729 -0.03040817 7.77239044 -0.0346933 8.81410217 -0.03910828 C10.95516205 -0.0448584 13.09624147 -0.04534684 15.23730469 -0.04101562 C18.51864882 -0.03785792 21.79908986 -0.06129893 25.08032227 -0.08666992 C27.15779508 -0.08894301 29.23527033 -0.08964637 31.31274414 -0.08862305 C32.29718002 -0.09783279 33.28161591 -0.10704254 34.29588318 -0.11653137 C35.21015579 -0.11030258 36.12442841 -0.10407379 37.06640625 -0.09765625 C38.27314247 -0.09860039 38.27314247 -0.09860039 39.5042572 -0.0995636 C42.16528502 0.37607362 43.03672734 1.08487369 44.59790039 3.2746582 C44.97885132 5.24095154 44.97885132 5.24095154 44.98608398 7.49902344 C44.99554047 8.34677841 45.00499695 9.19453339 45.01473999 10.06797791 C45.0086673 10.98051834 45.0025946 11.89305878 44.99633789 12.83325195 C44.99920807 13.77395035 45.00207825 14.71464874 45.0050354 15.68385315 C45.00707705 17.6735189 45.00154018 19.66320467 44.98901367 21.65283203 C44.97297942 24.69715362 44.98884983 27.74014395 45.00805664 30.78442383 C45.00607388 32.71736947 45.00222951 34.65031428 44.99633789 36.58325195 C45.00544693 37.94902626 45.00544693 37.94902626 45.01473999 39.34239197 C45.00528351 40.1932991 44.99582703 41.04420624 44.98608398 41.92089844 C44.9836972 42.66685776 44.98131042 43.41281708 44.97885132 44.18138123 C44.4760723 46.94408807 43.57908175 48.29426742 41.59790039 50.2746582 C39.5042572 50.76913452 39.5042572 50.76913452 37.06640625 50.76049805 C36.15213364 50.76665131 35.23786102 50.77280457 34.29588318 50.77914429 C33.3114473 50.76477325 32.32701141 50.75040222 31.31274414 50.7355957 C30.30071426 50.73467926 29.28868439 50.73376282 28.24598694 50.7328186 C26.10665191 50.7267759 23.96732561 50.71100994 21.828125 50.6862793 C18.54468802 50.6497615 15.26237861 50.64525991 11.97875977 50.64575195 C9.90257809 50.63592158 7.82640409 50.62426492 5.75024414 50.6105957 C4.76378403 50.60837006 3.77732391 50.60614441 2.76097107 50.60385132 C1.84985062 50.59109161 0.93873016 50.57833191 0 50.56518555 C-0.80369522 50.55756195 -1.60739044 50.54993835 -2.43544006 50.54208374 C-4.40209961 50.2746582 -4.40209961 50.2746582 -6.40209961 48.2746582 C-6.65606689 46.30126953 -6.65606689 46.30126953 -6.66088867 43.85668945 C-6.66719299 42.94234131 -6.67349731 42.02799316 -6.67999268 41.0859375 C-6.67594421 40.09634033 -6.67189575 39.10674316 -6.66772461 38.0871582 C-6.66963806 37.07371338 -6.67155151 36.06026855 -6.67352295 35.01611328 C-6.67488552 32.87084709 -6.67118408 30.72557267 -6.6628418 28.58032227 C-6.65214343 25.28814248 -6.6627348 21.99650842 -6.67553711 18.7043457 C-6.67421553 16.62361533 -6.67165316 14.54288529 -6.66772461 12.4621582 C-6.67177307 11.47256104 -6.67582153 10.48296387 -6.67999268 9.46337891 C-6.67368835 8.54903076 -6.66738403 7.63468262 -6.66088867 6.69262695 C-6.65929749 5.88591553 -6.6577063 5.0792041 -6.65606689 4.24804688 C-6.11950448 0.07882412 -3.58668699 0.02056161 0 0 Z " fill="#4BB4BB" transform="translate(6.402099609375,-0.274658203125)"/>
<path d="M0 0 C2.31 0 4.62 0 7 0 C7.02886751 4.14581887 7.04675327 8.29161216 7.0625 12.4375 C7.07087891 13.62150391 7.07925781 14.80550781 7.08789062 16.02539062 C7.09111328 17.15009766 7.09433594 18.27480469 7.09765625 19.43359375 C7.10289307 20.47572021 7.10812988 21.51784668 7.11352539 22.59155273 C7 25 7 25 6 26 C3.87991884 26.17813354 1.75208388 26.26789228 -0.375 26.3125 C-1.53773437 26.34988281 -2.70046875 26.38726562 -3.8984375 26.42578125 C-7 26 -7 26 -8.9140625 24.16796875 C-10 22 -10 22 -10 19 C-10.99 19.33 -11.98 19.66 -13 20 C-12.67 21.32 -12.34 22.64 -12 24 C-15.69720147 26.46480098 -18.71155966 26.7842673 -23 26 C-26.13836313 23.97314048 -27.65870267 22.54702808 -28.4765625 18.83984375 C-28.74267565 14.64506019 -28.33198013 12.50834457 -26 8.9375 C-21.81895862 6.23724411 -19.91883328 6.21923281 -15 7 C-12.5 9.5 -12.5 9.5 -11 12 C-10.484375 11.175 -9.96875 10.35 -9.4375 9.5 C-7 7 -7 7 -3.25 6.6875 C-2.1775 6.790625 -1.105 6.89375 0 7 C0 4.69 0 2.38 0 0 Z M-21 12 C-21.33 12.66 -21.66 13.32 -22 14 C-20.35 14 -18.7 14 -17 14 C-17.33 13.34 -17.66 12.68 -18 12 C-18.99 12 -19.98 12 -21 12 Z M-3 12 C-4.41577477 13.18424326 -4.41577477 13.18424326 -4.0625 16.5625 C-4.041875 17.696875 -4.02125 18.83125 -4 20 C-2.68 20.33 -1.36 20.66 0 21 C0 18.03 0 15.06 0 12 C-0.99 12 -1.98 12 -3 12 Z M-22 19 C-21.34 19.66 -20.68 20.32 -20 21 C-17.39719432 20.67958603 -17.39719432 20.67958603 -15 20 C-15 19.67 -15 19.34 -15 19 C-17.31 19 -19.62 19 -22 19 Z " fill="#434343" transform="translate(118,12)"/>
<path d="M0 0 C2.64 0 5.28 0 8 0 C8.27714844 0.85464844 8.55429688 1.70929687 8.83984375 2.58984375 C9.20207031 3.69457031 9.56429687 4.79929687 9.9375 5.9375 C10.29714844 7.03964844 10.65679687 8.14179688 11.02734375 9.27734375 C11.73856668 11.88123475 11.73856668 11.88123475 13 13 C14.65 8.71 16.3 4.42 18 0 C20.64 0 23.28 0 26 0 C26 8.25 26 16.5 26 25 C24.02 25 22.04 25 20 25 C19 24 19 24 18.90234375 21.93359375 C18.93489583 19.62239583 18.96744792 17.31119792 19 15 C17.68 18.3 16.36 21.6 15 25 C13.35 25 11.7 25 10 25 C9.01 22.36 8.02 19.72 7 17 C6.67 19.64 6.34 22.28 6 25 C4.02 25 2.04 25 0 25 C0 16.75 0 8.5 0 0 Z " fill="#434343" transform="translate(62,13)"/>
<path d="M0 0 C1.67542976 0.28604898 3.34385343 0.61781233 5 1 C4.85904936 2.6254308 4.71207913 4.25034051 4.5625 5.875 C4.48128906 6.77992187 4.40007813 7.68484375 4.31640625 8.6171875 C4 11 4 11 3 13 C4.5778125 12.9071875 4.5778125 12.9071875 6.1875 12.8125 C10.15816493 13.0077786 11.84196969 13.70325068 15 16 C14.75 17.875 14.75 17.875 14 20 C11.04454879 22.11103658 8.56144099 22.19785783 5 22 C5 21.01 5 20.02 5 19 C6.65 18.67 8.3 18.34 10 18 C10 17.34 10 16.68 10 16 C7.69 16 5.38 16 3 16 C3 18.97 3 21.94 3 25 C2.34 25 1.68 25 1 25 C1 22.03 1 19.06 1 16 C0.32453125 15.96261719 -0.3509375 15.92523438 -1.046875 15.88671875 C-1.93890625 15.82097656 -2.8309375 15.75523438 -3.75 15.6875 C-5.07257812 15.60048828 -5.07257812 15.60048828 -6.421875 15.51171875 C-9.3680209 14.92695343 -10.83733752 14.06300061 -13 12 C-13.375 9.4375 -13.375 9.4375 -13 7 C-11 5 -11 5 -8.8359375 4.8046875 C-7.61777344 4.83949219 -7.61777344 4.83949219 -6.375 4.875 C-5.14910156 4.90207031 -5.14910156 4.90207031 -3.8984375 4.9296875 C-2.95871094 4.96449219 -2.95871094 4.96449219 -2 5 C-1.855625 4.360625 -1.71125 3.72125 -1.5625 3.0625 C-1 1 -1 1 0 0 Z " fill="#F2F8F9" transform="translate(23,3)"/>
<path d="M0 0 C2.12109375 0.43359375 2.12109375 0.43359375 3.85546875 1.44921875 C5.86209699 4.59541365 5.69774417 7.99472899 5.80859375 11.62109375 C5.85983398 12.74547852 5.85983398 12.74547852 5.91210938 13.89257812 C5.99443669 15.73906213 6.05944656 17.58630369 6.12109375 19.43359375 C3.85084407 19.51456699 1.579773 19.57277079 -0.69140625 19.62109375 C-2.58826172 19.67330078 -2.58826172 19.67330078 -4.5234375 19.7265625 C-7.87890625 19.43359375 -7.87890625 19.43359375 -9.80859375 18.11328125 C-11.45790527 15.52494565 -11.19655873 13.41952708 -10.87890625 10.43359375 C-10.21890625 9.77359375 -9.55890625 9.11359375 -8.87890625 8.43359375 C-9.53890625 7.11359375 -10.19890625 5.79359375 -10.87890625 4.43359375 C-7.7467762 0.0758476 -5.00743824 -0.00844425 0 0 Z M-3.87890625 5.43359375 C-4.20890625 6.09359375 -4.53890625 6.75359375 -4.87890625 7.43359375 C-3.55890625 7.43359375 -2.23890625 7.43359375 -0.87890625 7.43359375 C-0.87890625 6.77359375 -0.87890625 6.11359375 -0.87890625 5.43359375 C-1.86890625 5.43359375 -2.85890625 5.43359375 -3.87890625 5.43359375 Z M-3.87890625 11.43359375 C-4.20890625 12.42359375 -4.53890625 13.41359375 -4.87890625 14.43359375 C-3.55890625 14.10359375 -2.23890625 13.77359375 -0.87890625 13.43359375 C-0.87890625 12.77359375 -0.87890625 12.11359375 -0.87890625 11.43359375 C-1.86890625 11.43359375 -2.85890625 11.43359375 -3.87890625 11.43359375 Z " fill="#434343" transform="translate(162.87890625,18.56640625)"/>
<path d="M0 0 C2.5 1.1875 2.5 1.1875 4 3 C4.25 5.6875 4.25 5.6875 4 8 C2.35 8 0.7 8 -1 8 C-1.33 7.01 -1.66 6.02 -2 5 C-2.99 5.33 -3.98 5.66 -5 6 C-5 8.31 -5 10.62 -5 13 C-4.01 13.33 -3.02 13.66 -2 14 C-1.67 13.01 -1.34 12.02 -1 11 C0.65 11 2.3 11 4 11 C4.25 13.3125 4.25 13.3125 4 16 C2.22711704 18.14223357 0.82971673 18.86058039 -1.90625 19.3203125 C-5.29341081 19.5098924 -7.4705448 19.27796398 -10.5 17.6875 C-12.94774968 13.30194848 -12.71283186 8.89329371 -12 4 C-9.2902544 -0.85496087 -5.07310664 -0.85244825 0 0 Z " fill="#434343" transform="translate(147,19)"/>
<path d="M0 0 C3.63 0 7.26 0 11 0 C11 1.98 11 3.96 11 6 C9.68 6.33 8.36 6.66 7 7 C6.67 10.96 6.34 14.92 6 19 C4.02 19 2.04 19 0 19 C0 12.73 0 6.46 0 0 Z " fill="#434343" transform="translate(170,19)"/>
<path d="M0 0 C0 0.99 0 1.98 0 3 C-1.32 3 -2.64 3 -4 3 C-4 3.66 -4 4.32 -4 5 C-3.443125 5.03738281 -2.88625 5.07476563 -2.3125 5.11328125 C3.28625424 5.59560636 7.81665364 6.83241879 13 9 C12.67 10.65 12.34 12.3 12 14 C10.02 14.33 8.04 14.66 6 15 C6 14.01 6 13.02 6 12 C6.99 12 7.98 12 9 12 C9 11.34 9 10.68 9 10 C7.35 9.67 5.7 9.34 4 9 C4 11.64 4 14.28 4 17 C3.34 17 2.68 17 2 17 C2 14.03 2 11.06 2 8 C0.3603125 8.061875 0.3603125 8.061875 -1.3125 8.125 C-5 8 -5 8 -8 6 C-7.625 3.5625 -7.625 3.5625 -7 1 C-4.53721199 -0.231394 -2.7204945 -0.07159196 0 0 Z " fill="#F4F9FA" transform="translate(22,23)"/>
<path d="M0 0 C1.98 0 3.96 0 6 0 C6 6.27 6 12.54 6 19 C4.02 19 2.04 19 0 19 C0 12.73 0 6.46 0 0 Z " fill="#434343" transform="translate(127,19)"/>
<path d="M0 0 C1.65 0.33 3.3 0.66 5 1 C4.85904936 2.6254308 4.71207913 4.25034051 4.5625 5.875 C4.48128906 6.77992187 4.40007813 7.68484375 4.31640625 8.6171875 C4 11 4 11 3 13 C1.20793453 12.85915204 -0.58364917 12.71216299 -2.375 12.5625 C-3.37273438 12.48128906 -4.37046875 12.40007813 -5.3984375 12.31640625 C-8 12 -8 12 -10 11 C-10 10.34 -10 9.68 -10 9 C-9.05125 9.020625 -8.1025 9.04125 -7.125 9.0625 C-4.09333717 9.22551826 -4.09333717 9.22551826 -2 8 C-2.33 7.01 -2.66 6.02 -3 5 C-1.5625 2.3125 -1.5625 2.3125 0 0 Z " fill="#74C2C7" transform="translate(23,3)"/>
<path d="M0 0 C0.99 0 1.98 0 3 0 C2.67 1.32 2.34 2.64 2 4 C6.455 4.99 6.455 4.99 11 6 C11.33 7.32 11.66 8.64 12 10 C10.68 9.34 9.36 8.68 8 8 C8 8.66 8 9.32 8 10 C6.68 10 5.36 10 4 10 C4 8.68 4 7.36 4 6 C2.35 5.67 0.7 5.34 -1 5 C-1 1 -1 1 0 0 Z " fill="#DDEEEF" transform="translate(19,37)"/>
<path d="M0 0 C1.67542976 0.28604898 3.34385343 0.61781233 5 1 C4.67 4.3 4.34 7.6 4 11 C3.01 11 2.02 11 1 11 C1 9.35 1 7.7 1 6 C0.34 6 -0.32 6 -1 6 C-1.042721 4.33388095 -1.04063832 2.66617115 -1 1 C-0.67 0.67 -0.34 0.34 0 0 Z " fill="#F2F8F9" transform="translate(23,3)"/>
<path d="M0 0 C1.32 0 2.64 0 4 0 C4 2.97 4 5.94 4 9 C4.66 9 5.32 9 6 9 C6 6.36 6 3.72 6 1 C7.65 1.33 9.3 1.66 11 2 C11 2.66 11 3.32 11 4 C10.01 4 9.02 4 8 4 C7.67 5.98 7.34 7.96 7 10 C3.25 11.125 3.25 11.125 1 10 C1 8.35 1 6.7 1 5 C1.66 5 2.32 5 3 5 C3 3.68 3 2.36 3 1 C2.01 0.67 1.02 0.34 0 0 Z " fill="#92CCD1" transform="translate(20,31)"/>
<path d="M0 0 C1.67542976 0.28604898 3.34385343 0.61781233 5 1 C5 2.65 5 4.3 5 6 C3.02 6 1.04 6 -1 6 C-1.042721 4.33388095 -1.04063832 2.66617115 -1 1 C-0.67 0.67 -0.34 0.34 0 0 Z " fill="#434343" transform="translate(128,12)"/>
<path d="M0 0 C2.31 0 4.62 0 7 0 C7 0.66 7 1.32 7 2 C5.35 2.33 3.7 2.66 2 3 C1.67 4.98 1.34 6.96 1 9 C0.67 9 0.34 9 0 9 C0 6.03 0 3.06 0 0 Z " fill="#78C3C8" transform="translate(26,19)"/>
<path d="M0 0 C0.99 0 1.98 0 3 0 C2.67 1.32 2.34 2.64 2 4 C2.99 4.33 3.98 4.66 5 5 C5 5.33 5 5.66 5 6 C3.35 6 1.7 6 0 6 C-0.66 4.68 -1.32 3.36 -2 2 C-1.34 1.34 -0.68 0.68 0 0 Z " fill="#F2F9F9" transform="translate(19,37)"/>
<path d="M0 0 C0.99 0.33 1.98 0.66 3 1 C2.67 2.32 2.34 3.64 2 5 C0.35 5 -1.3 5 -3 5 C-2.625 3.0625 -2.625 3.0625 -2 1 C-1.34 0.67 -0.68 0.34 0 0 Z " fill="#E0F0F1" transform="translate(18,8)"/>
</svg>
